<svg width="60" height="40" fill="none" xmlns="http://www.w3.org/2000/svg"><rect x="1.23" width="58.143" height="40" rx="4" fill="#F8FAFB"/><path d="M24.875 24.642L26.81 13.42h3.02l-1.873 11.22h-3.08z" fill="#3C58BF"/><path d="M24.875 24.642l2.477-11.221h2.477l-1.873 11.22h-3.08z" fill="#293688"/><path d="M38.89 13.545c-.604-.249-1.57-.498-2.778-.498-3.02 0-5.196 1.558-5.196 3.802 0 1.683 1.51 2.556 2.719 3.117 1.208.561 1.57.935 1.57 1.434 0 .748-.966 1.122-1.812 1.122-1.208 0-1.872-.187-2.9-.623l-.422-.187-.423 2.555c.725.312 2.054.624 3.443.624 3.202 0 5.316-1.558 5.316-3.927 0-1.31-.785-2.307-2.597-3.117-1.088-.561-1.752-.873-1.752-1.434 0-.499.543-.997 1.752-.997 1.027 0 1.752.187 2.295.436l.302.125.484-2.432z" fill="#3C58BF"/><path d="M38.89 13.545c-.604-.249-1.57-.498-2.778-.498-3.02 0-4.652 1.558-4.652 3.802 0 1.683.967 2.556 2.175 3.117 1.208.561 1.57.935 1.57 1.434 0 .748-.966 1.122-1.812 1.122-1.208 0-1.872-.187-2.9-.623l-.422-.187-.423 2.555c.725.312 2.054.624 3.443.624 3.202 0 5.316-1.558 5.316-3.927 0-1.31-.785-2.307-2.597-3.117-1.088-.561-1.752-.873-1.752-1.434 0-.499.543-.997 1.752-.997 1.027 0 1.752.187 2.295.436l.302.125.484-2.432z" fill="#293688"/><path fill-rule="evenodd" clip-rule="evenodd" d="M42.515 14.231c.302-.748.846-.81 1.57-.81h2.356l2.537 11.22h-2.9l-.362-1.87H41.85l-.604 1.87h-3.262l4.53-10.41zm1.39 3.366s-1.028 2.743-1.209 3.304v.063h2.537c-.12-.624-.725-3.429-.725-3.429l-.18-1.06c-.182.437-.424 1.122-.424 1.122z" fill="#3C58BF"/><path fill-rule="evenodd" clip-rule="evenodd" d="M43.24 14.231c.302-.748.845-.81 1.57-.81h1.631l2.537 11.22h-2.9l-.362-1.87H41.85l-.604 1.87h-3.262l5.256-10.41zm.664 3.366s-.966 2.68-1.208 3.304v.063h2.537c-.12-.624-.725-3.429-.725-3.429l-.18-1.06c-.182.437-.424 1.122-.424 1.122z" fill="#293688"/><path d="M19.318 21.275l-.302-1.62c-.544-1.87-2.296-3.928-4.229-4.925l2.719 9.974h3.262l4.893-11.22h-3.262l-3.081 7.791z" fill="#3C58BF"/><path d="M19.318 21.275l-.302-1.62c-.544-1.87-2.296-3.928-4.229-4.925l2.719 9.974h3.262l4.893-11.22h-2.658l-3.685 7.791z" fill="#293688"/><path d="M10.921 13.42l.544.126c3.866.934 6.524 3.303 7.55 6.108l-1.087-5.298c-.18-.748-.724-.935-1.389-.935h-5.618z" fill="#FFBC00"/><path d="M10.921 13.42c3.866.936 7.068 3.367 8.095 6.172l-1.027-4.426c-.181-.748-.785-1.184-1.45-1.184l-5.618-.561z" fill="#F7981D"/><path d="M10.921 13.42c3.866.936 7.068 3.367 8.095 6.172l-.725-2.431c-.181-.748-.423-1.496-1.269-1.808l-6.1-1.932z" fill="#ED7C00"/><path d="M22.338 20.901l-2.054-2.12-.966 2.37-.242-1.559c-.543-1.87-2.295-3.927-4.228-4.924l2.718 9.974h3.262l1.51-3.74zm5.618 3.741l-2.597-2.743-.484 2.742h3.081zm6.947-3.865c.242.249.363.436.302.685 0 .748-.966 1.122-1.812 1.122-1.208 0-1.873-.187-2.9-.623l-.422-.187-.423 2.556c.725.312 2.054.623 3.443.623 1.933 0 3.504-.56 4.41-1.558l-2.598-2.618zm3.504 3.865h2.84l.603-1.87h3.866l.363 1.87h2.9l-1.027-4.551-3.625-3.616.181.998s.604 2.805.725 3.428h-2.537c.242-.623 1.208-3.304 1.208-3.304s.242-.685.423-1.122" fill="#051244"/></svg>